
        <svg xmlns="http://www.w3.org/2000/svg" xmlns:xlink="http://www.w3.org/1999/xlink" version="1.1" width="3260.8695652173915" height="1043.4782608695652" viewBox="0 0 3260.8695652173915 1043.4782608695652">
			
			<g transform="scale(13.043478260869565) translate(10, 10)">
				<defs id="SvgjsDefs6341"/><g id="SvgjsG6342" featureKey="symbolFeature-0" transform="matrix(0.8225600722116437,0,0,0.8225600722116437,-11.128415449149834,-11.128415449149834)" fill="#000"><g xmlns="http://www.w3.org/2000/svg"><path d="M55.476,13.529L37.581,31.424l6.55,24.444l8.792,2.333l-0.927-3.435l-5.353-1.411l-5.17-19.296l19.298,5.17l5.171,19.298   l-2.918-0.806l0.928,3.434l4.625,1.265l17.895-17.896L79.92,20.078L55.476,13.529z M42.269,31.087l14.125-14.125l19.299,5.168   L61.566,36.256L42.269,31.087z M83.039,43.605L68.911,57.73l-5.169-19.299l14.127-14.126L83.039,43.605z"/><path d="M55.869,44.13l-8.842-2.401l0.928,3.435l5.401,1.479l5.171,19.298L39.23,60.771l-5.17-19.297l2.894,0.756l-0.928-3.434   l-4.602-1.213L13.529,55.477l6.55,24.445l24.445,6.55l17.895-17.895L55.869,44.13z M16.961,56.395l14.127-14.127l5.171,19.298   L22.132,75.692L16.961,56.395z M43.604,83.041L24.306,77.87l14.127-14.128l19.298,5.171L43.604,83.041z"/></g></g><g id="SvgjsG6343" featureKey="nameFeature-0" transform="matrix(1.9936194605035034,0,0,1.9936194605035034,74.49768873514961,-20.807003890340386)" fill="#000"><path d="M18.16 11.440000000000001 c2.4 0 4.3936 0.74 5.98 2.22 s2.38 3.3667 2.38 5.66 c0 3.5733 -1.5067 5.96 -4.52 7.16 l0 0.08 c1.0133 0.29332 1.8066 0.78 2.38 1.46 s1.0066 1.4733 1.3 2.38 s0.48 2.36 0.56 4.36 c0.10668 2.6133 0.48 4.36 1.12 5.24 l-6.28 0 c-0.34668 -0.88 -0.61336 -2.5333 -0.80004 -4.96 c-0.21332 -2.56 -0.68 -4.2332 -1.4 -5.02 s-1.8933 -1.18 -3.52 -1.18 l-6.32 0 l0 11.16 l-6.28 0 l0 -28.56 l15.4 0 z M15.96 24.36 c1.3333 0 2.38 -0.3 3.14 -0.9 s1.14 -1.66 1.14 -3.18 c0 -1.44 -0.37332 -2.46 -1.12 -3.06 s-1.8134 -0.9 -3.2 -0.9 l-6.88 0 l0 8.04 l6.92 0 z M34.12 11.440000000000001 l6.68 11.28 l6.64 -11.28 l7 0 l-10.6 17.6 l0 10.96 l-6.28 0 l0 -11.12 l-10.52 -17.44 l7.08 0 z M78 11.440000000000001 l0 5.28 l-8.56 0 l0 23.28 l-6.28 0 l0 -23.28 l-8.56 0 l0 -5.28 l23.4 0 z"/></g>
			</g>
		</svg>
	